<?xml version="1.0" encoding="UTF-8" standalone="no"?>
<!-- Created with Inkscape (http://www.inkscape.org/) -->

<svg
   width="338.94992pt"
   height="61.341343pt"
   viewBox="0 0 119.574 21.639863"
   version="1.1"
   id="svg1"
   inkscape:version="1.4.2 (ebf0e940d0, 2025-05-08)"
   sodipodi:docname="logo_dark.svg"
   xmlns:inkscape="http://www.inkscape.org/namespaces/inkscape"
   xmlns:sodipodi="http://sodipodi.sourceforge.net/DTD/sodipodi-0.dtd"
   xmlns="http://www.w3.org/2000/svg"
   xmlns:svg="http://www.w3.org/2000/svg">
  <sodipodi:namedview
     id="namedview1"
     pagecolor="#ffffff"
     bordercolor="#000000"
     borderopacity="0.25"
     inkscape:showpageshadow="2"
     inkscape:pageopacity="0.0"
     inkscape:pagecheckerboard="true"
     inkscape:deskcolor="#d1d1d1"
     inkscape:document-units="mm"
     inkscape:zoom="1"
     inkscape:cx="27.5"
     inkscape:cy="38.5"
     inkscape:window-width="3840"
     inkscape:window-height="2094"
     inkscape:window-x="2256"
     inkscape:window-y="29"
     inkscape:window-maximized="1"
     inkscape:current-layer="layer1" />
  <defs
     id="defs1" />
  <g
     inkscape:label="Layer 1"
     inkscape:groupmode="layer"
     id="layer1"
     transform="translate(-23.137921,-13.127784)">
    <path
       style="font-size:2.82223px;font-family:Quicksand;-inkscape-font-specification:Quicksand;text-align:end;text-anchor:end;fill:#ffffff;stroke-width:2.4139"
       d="m 23.934644,20.480216 q 0.206007,0 0.412013,0.128731 0.206007,0.128731 0.30901,0.386194 l 4.50597,10.71132 -0.334738,0.206006 4.608954,-10.917308 q 0.206007,-0.514925 0.746751,-0.489197 0.257463,0 0.489198,0.180187 0.231734,0.15446 0.231734,0.46347 0,0.154458 -0.05109,0.257462 -0.02555,0.07755 -0.05109,0.180188 l -5.046677,11.844246 q -0.206006,0.463469 -0.695204,0.489197 -0.231734,0.02555 -0.463469,-0.103004 -0.206009,-0.154459 -0.309012,-0.386193 L 23.214561,21.587269 q -0.02555,-0.05109 -0.05109,-0.15446 -0.02555,-0.103003 -0.02555,-0.206007 0,-0.28319 0.206007,-0.514925 0.206006,-0.231735 0.5922,-0.231735 z M 43.68364,34.178338 q -1.982626,0 -3.501774,-0.849662 -1.519157,-0.849664 -2.368857,-2.368848 -0.849663,-1.519148 -0.849663,-3.553276 0,-2.188605 0.849663,-3.733508 0.875483,-1.544904 2.240107,-2.368848 1.390417,-0.849663 2.93532,-0.849663 1.132927,0 2.188605,0.412014 1.081435,0.386194 1.905379,1.184428 0.849663,0.772479 1.338915,1.905378 0.515016,1.132927 0.566472,2.626328 -0.02555,0.30901 -0.257462,0.540744 -0.231735,0.206007 -0.540745,0.206007 H 37.864511 l -0.30901,-1.390416 h 10.144857 l -0.334738,0.30901 v -0.515017 q -0.103004,-1.210166 -0.772479,-2.059865 -0.669476,-0.849663 -1.622152,-1.287413 -0.952684,-0.437741 -1.982617,-0.437741 -0.772479,0 -1.596404,0.30901 -0.798208,0.309009 -1.467656,0.978439 -0.643656,0.643748 -1.055679,1.673644 -0.412013,1.004187 -0.412013,2.394603 0,1.519148 0.617929,2.755068 0.617928,1.235921 1.776637,1.956881 1.184419,0.720931 2.806571,0.720931 0.90121,0 1.622142,-0.257462 0.720932,-0.257463 1.261667,-0.669476 0.540745,-0.437741 0.90121,-0.90121 0.283191,-0.231735 0.566473,-0.231735 0.257462,0 0.437741,0.206006 0.206006,0.206007 0.206006,0.46347 0,0.30901 -0.257462,0.540744 -0.772479,0.926948 -2.008372,1.622151 -1.235921,0.669476 -2.703576,0.669476 z M 58.205725,20.660449 q 1.596396,0 2.729332,0.849663 1.132926,0.823935 1.544894,2.471841 l -0.360466,0.103004 0.15446,-0.46347 q 0.334738,-0.772479 1.10718,-1.441909 0.798207,-0.695203 1.802384,-1.10718 1.004186,-0.412013 2.034128,-0.412013 1.622142,0 2.600582,0.695204 1.004186,0.695203 1.441909,1.879632 0.463469,1.158682 0.463469,2.626337 v 7.286784 q 0,0.30901 -0.231734,0.540745 -0.206007,0.231734 -0.540745,0.231734 -0.334738,0 -0.566472,-0.231734 -0.206007,-0.231735 -0.206007,-0.540745 v -7.209545 q 0,-1.055679 -0.334737,-1.931125 -0.334738,-0.875482 -1.055679,-1.390407 -0.720932,-0.515017 -1.931134,-0.515017 -1.055679,0 -2.034119,0.515017 -0.952685,0.514925 -1.57065,1.390407 -0.5922,0.875482 -0.5922,1.931125 v 7.209545 q 0,0.30901 -0.231735,0.540745 -0.206006,0.231734 -0.540744,0.231734 -0.334738,0 -0.566472,-0.231734 -0.206007,-0.231735 -0.206007,-0.540745 v -7.286784 q 0,-1.055688 -0.309009,-1.905378 -0.309011,-0.849664 -1.004187,-1.338915 -0.695204,-0.515017 -1.879623,-0.515017 -1.055688,0 -2.008372,0.515017 -0.926948,0.489197 -1.519157,1.338915 -0.566473,0.849663 -0.566473,1.905378 v 7.286784 q 0,0.30901 -0.231734,0.540745 -0.231735,0.231734 -0.540744,0.231734 -0.360467,0 -0.566473,-0.231734 -0.206007,-0.231735 -0.206007,-0.540745 V 21.613078 q 0,-0.309009 0.206007,-0.540744 0.231734,-0.231735 0.566473,-0.231735 0.334737,0 0.540744,0.231735 0.231734,0.231735 0.231734,0.540744 v 2.394594 l -0.695204,0.952694 q 0.07755,-0.772479 0.489198,-1.544903 0.437741,-0.77248 1.132926,-1.390417 0.695204,-0.617929 1.57065,-0.978431 0.90121,-0.386194 1.879632,-0.386194 z m 23.817253,-0.206007 q 1.750893,0 3.089805,0.875482 1.364663,0.875483 2.162863,2.420349 0.798206,1.519149 0.798206,3.527521 0,1.95688 -0.798206,3.527529 -0.798213,1.57065 -2.162863,2.471842 -1.36467,0.90121 -3.064061,0.90121 -0.901211,0 -1.725135,-0.283281 -0.798206,-0.283191 -1.467656,-0.746661 -0.669475,-0.489197 -1.18443,-1.132926 Q 77.15658,31.371759 76.84757,30.62509 l 0.463465,-0.334737 v 2.909564 q 0,0.334738 -0.231729,0.566472 -0.206011,0.206007 -0.540745,0.206007 -0.334741,0 -0.566477,-0.206007 Q 75.76608,33.534655 75.76608,33.199917 V 15.665291 q 0,-0.334738 0.206004,-0.540744 0.206011,-0.231735 0.566477,-0.231735 0.334734,0 0.540745,0.231735 0.231729,0.206006 0.231729,0.540744 v 8.625699 l -0.360466,-0.206006 q 0.257467,-0.798207 0.746664,-1.441909 0.515013,-0.669476 1.184423,-1.158673 0.669476,-0.489197 1.467656,-0.74666 0.798212,-0.283282 1.673646,-0.283282 z m -0.128731,1.441909 q -1.390421,0 -2.446094,0.695204 -1.05568,0.695204 -1.673646,1.905378 -0.592202,1.210175 -0.592202,2.780824 0,1.544903 0.592202,2.80657 0.617927,1.235921 1.673646,1.956881 1.055673,0.695204 2.446094,0.695204 1.364657,0 2.394592,-0.720933 1.055686,-0.720931 1.673646,-1.956879 0.617927,-1.261667 0.617927,-2.780825 0,-1.570649 -0.617927,-2.780824 -0.617933,-1.210165 -1.673646,-1.905378 -1.029935,-0.695204 -2.394592,-0.695204 z M 92.142116,33.92084 q -0.360466,0 -0.566477,-0.231735 -0.206004,-0.231735 -0.206004,-0.540744 V 21.613097 q 0,-0.30901 0.206004,-0.540745 0.231736,-0.231734 0.566477,-0.231734 0.334734,0 0.540745,0.231734 0.231729,0.231735 0.231729,0.540745 v 3.862249 l -0.386191,0.07755 q 0.07755,-0.90121 0.43774,-1.776638 0.386198,-0.90121 1.029935,-1.647898 0.643744,-0.746659 1.519158,-1.210174 0.901211,-0.46347 2.008368,-0.46347 0.463471,0 0.901211,0.206007 0.43774,0.180279 0.43774,0.617928 0,0.386194 -0.206004,0.592201 -0.206004,0.206007 -0.489197,0.206007 -0.231736,0 -0.515013,-0.128731 -0.257468,-0.128732 -0.695208,-0.128732 -0.720932,0 -1.44191,0.437741 -0.720932,0.412013 -1.313167,1.132936 -0.592202,0.720932 -0.952681,1.622142 -0.334741,0.875483 -0.334741,1.776638 v 6.359846 q 0,0.30901 -0.231736,0.540745 -0.231736,0.231734 -0.540745,0.231734 z M 111.7624,20.763425 q 0.33473,0 0.54074,0.231734 0.23173,0.231735 0.23173,0.566472 v 11.586766 q 0,0.30901 -0.23173,0.540744 -0.23173,0.231735 -0.54074,0.231735 -0.33474,0 -0.56648,-0.231735 -0.206,-0.231734 -0.206,-0.540744 v -3.06406 l 0.43774,-0.206007 q 0,0.720932 -0.41202,1.467655 -0.38619,0.74666 -1.08143,1.390408 -0.6952,0.643748 -1.6479,1.055688 -0.92694,0.386194 -2.00836,0.386194 -1.75089,0 -3.14131,-0.901211 -1.36466,-0.90121 -2.16285,-2.471841 -0.77248,-1.570649 -0.77248,-3.527529 0,-2.008373 0.7982,-3.527521 0.79821,-1.544903 2.16287,-2.420349 1.36466,-0.875482 3.0898,-0.875482 1.10718,0 2.05987,0.386194 0.97843,0.386194 1.69939,1.055678 0.72093,0.669476 1.10718,1.544904 0.41202,0.849663 0.41202,1.776638 l -0.54075,-0.386194 v -3.27004 q 0,-0.334738 0.20601,-0.566472 0.23173,-0.231735 0.56647,-0.231735 z m -5.35566,11.972987 q 1.36466,0 2.42034,-0.695204 1.05568,-0.720932 1.6479,-1.956881 0.61792,-1.261667 0.61792,-2.80657 0,-1.519147 -0.61792,-2.729322 -0.5922,-1.210175 -1.6479,-1.931125 -1.05568,-0.720932 -2.42034,-0.720932 -1.33892,0 -2.42035,0.695204 -1.05568,0.695204 -1.67365,1.905378 -0.5922,1.210175 -0.5922,2.780825 0,1.544903 0.5922,2.80657 0.61793,1.235921 1.67365,1.95688 1.05568,0.695203 2.42035,0.695203 z m 16.37597,-12.28197 q 1.6994,0 2.70358,0.695203 1.02994,0.669477 1.46766,1.853877 0.46347,1.158673 0.46347,2.574836 v 7.570021 q 0,0.309009 -0.23174,0.540745 -0.23173,0.231734 -0.54074,0.231734 -0.36047,0 -0.56647,-0.231734 -0.20601,-0.231736 -0.20601,-0.540745 v -7.492773 q 0,-1.029932 -0.33474,-1.879632 -0.33474,-0.849663 -1.10718,-1.364661 -0.74675,-0.515017 -1.98262,-0.515017 -1.10719,0 -2.11137,0.515017 -0.97843,0.514925 -1.5964,1.364661 -0.61793,0.849663 -0.61793,1.879632 v 7.492773 q 0,0.309009 -0.23173,0.540745 -0.23174,0.231734 -0.54075,0.231734 -0.36046,0 -0.56647,-0.231734 -0.206,-0.231736 -0.206,-0.540745 V 21.613115 q 0,-0.30901 0.206,-0.540745 0.23174,-0.231734 0.56647,-0.231734 0.33474,0 0.54075,0.231734 0.23173,0.231735 0.23173,0.540745 v 2.162859 l -0.5922,0.926939 q 0.0511,-0.823935 0.51493,-1.57065 0.4892,-0.772479 1.23592,-1.364662 0.74675,-0.617928 1.6479,-0.952684 0.92694,-0.360466 1.85387,-0.360466 z m 14.62505,13.723878 q -1.98263,0 -3.50178,-0.849663 -1.51915,-0.849662 -2.36885,-2.368847 -0.84967,-1.519148 -0.84967,-3.553276 0,-2.188605 0.84967,-3.733509 0.87548,-1.544902 2.24011,-2.368847 1.39041,-0.849663 2.93531,-0.849663 1.13293,0 2.18861,0.412013 1.08144,0.386194 1.90538,1.184428 0.84967,0.772479 1.33891,1.905378 0.51502,1.132927 0.56647,2.626329 -0.0256,0.30901 -0.25746,0.540745 -0.23173,0.206006 -0.54074,0.206006 h -10.32509 l -0.30901,-1.390417 h 10.14485 l -0.33474,0.30901 v -0.515016 q -0.103,-1.210165 -0.77248,-2.059865 -0.66947,-0.849663 -1.62215,-1.287414 -0.95268,-0.437741 -1.98263,-0.437741 -0.77248,0 -1.59639,0.30901 -0.79821,0.30901 -1.46766,0.97844 -0.64374,0.643748 -1.05567,1.673644 -0.41202,1.004186 -0.41202,2.394603 0,1.519148 0.61793,2.755069 0.61793,1.23592 1.77664,1.956879 1.18443,0.720932 2.80657,0.720932 0.90121,0 1.62215,-0.257462 0.72093,-0.257463 1.26167,-0.669477 0.54074,-0.437741 0.90121,-0.90121 0.28319,-0.231734 0.56647,-0.231734 0.25746,0 0.43774,0.206007 0.20601,0.206006 0.20601,0.463469 0,0.30901 -0.25746,0.540744 -0.77248,0.926948 -2.00838,1.622151 -1.23592,0.669476 -2.70357,0.669476 z"
       id="text1"
       aria-label="vembrane" />
    <circle
       style="fill:#ffffff;stroke-width:2.4139"
       id="path1"
       cx="52.94622"
       cy="32.862423"
       r="1.9052243" />
    <circle
       style="fill:#ffffff;stroke-width:2.4139"
       id="circle1"
       cx="61.755043"
       cy="32.862423"
       r="1.9052243" />
    <circle
       style="fill:#ffffff;stroke-width:2.4139"
       id="circle2"
       cx="70.987259"
       cy="32.862423"
       r="1.9052243" />
    <circle
       style="fill:#ffffff;stroke-width:2.4139"
       id="circle3"
       cx="76.661819"
       cy="15.033009"
       r="1.9052243" />
    <circle
       style="fill:#ffffff;stroke-width:2.4139"
       id="circle4"
       cx="117.57166"
       cy="32.862423"
       r="1.9052243" />
    <circle
       style="fill:#ffffff;stroke-width:2.4139"
       id="circle5"
       cx="126.59212"
       cy="32.862423"
       r="1.9052243" />
    <circle
       style="fill:#ffffff;stroke-width:2.4139"
       id="circle6"
       cx="92.162529"
       cy="32.862423"
       r="1.9052243" />
  </g>
</svg>
