<?xml version="1.0" encoding="UTF-8" standalone="no"?>
<!-- Created with Inkscape (http://www.inkscape.org/) -->

<svg
   width="146.72087mm"
   height="26.552759mm"
   viewBox="0 0 146.72087 26.55276"
   version="1.1"
   id="svg1"
   inkscape:version="1.4.2 (ebf0e940d0, 2025-05-08)"
   sodipodi:docname="logo.svg"
   xmlns:inkscape="http://www.inkscape.org/namespaces/inkscape"
   xmlns:sodipodi="http://sodipodi.sourceforge.net/DTD/sodipodi-0.dtd"
   xmlns="http://www.w3.org/2000/svg"
   xmlns:svg="http://www.w3.org/2000/svg">
  <sodipodi:namedview
     id="namedview1"
     pagecolor="#ffffff"
     bordercolor="#000000"
     borderopacity="0.25"
     inkscape:showpageshadow="2"
     inkscape:pageopacity="0.0"
     inkscape:pagecheckerboard="true"
     inkscape:deskcolor="#d1d1d1"
     inkscape:document-units="mm"
     inkscape:zoom="1"
     inkscape:cx="28.5"
     inkscape:cy="38.5"
     inkscape:window-width="3840"
     inkscape:window-height="2094"
     inkscape:window-x="2256"
     inkscape:window-y="29"
     inkscape:window-maximized="1"
     inkscape:current-layer="layer1" />
  <defs
     id="defs1" />
  <g
     inkscape:label="Layer 1"
     inkscape:groupmode="layer"
     id="layer1"
     transform="translate(-23.13792,-13.127784)">
    <path
       style="font-size:2.82223px;font-family:Quicksand;-inkscape-font-specification:Quicksand;text-align:end;text-anchor:end;stroke-width:2.96193"
       d="m 24.115524,22.149437 q 0.252776,0 0.505553,0.157957 0.252776,0.157957 0.379164,0.473872 l 5.528959,13.143108 -0.410734,0.252777 5.655325,-13.395863 q 0.252776,-0.631829 0.916286,-0.60026 0.315914,0 0.600259,0.221096 0.284346,0.189526 0.284346,0.56869 0,0.189526 -0.06269,0.315914 -0.03135,0.09515 -0.06269,0.221096 l -6.192424,14.533243 q -0.252776,0.568691 -0.853035,0.60026 -0.284346,0.03135 -0.568691,-0.126388 -0.252776,-0.189527 -0.379164,-0.473872 L 23.23196,23.507824 q -0.03135,-0.06269 -0.06269,-0.189527 -0.03135,-0.126388 -0.03135,-0.252776 0,-0.347483 0.252776,-0.631828 0.252776,-0.284346 0.726648,-0.284346 z m 24.232607,16.808006 q -2.432741,0 -4.296781,-1.042562 -1.864051,-1.042562 -2.906658,-2.906647 -1.042562,-1.86404 -1.042562,-4.359975 0,-2.685484 1.042562,-4.581127 1.074243,-1.895642 2.748678,-2.906646 1.706083,-1.042562 3.601725,-1.042562 1.390135,0 2.685484,0.505552 1.326952,0.473872 2.337956,1.453329 1.042562,0.947855 1.642889,2.337956 0.63194,1.390135 0.695079,3.222583 -0.03135,0.379165 -0.315915,0.66351 -0.284345,0.252776 -0.663509,0.252776 H 41.207886 l -0.379164,-1.706083 h 12.448041 l -0.410733,0.379165 v -0.631941 q -0.126388,-1.484909 -0.947855,-2.527516 -0.821467,-1.042561 -1.990428,-1.579694 -1.168972,-0.537122 -2.43273,-0.537122 -0.947855,0 -1.958837,0.379165 -0.979423,0.379164 -1.800857,1.200575 -0.789785,0.789897 -1.295349,2.053611 -0.505552,1.232166 -0.505552,2.938249 0,1.864039 0.758216,3.380551 0.758217,1.516512 2.179988,2.40115 1.453318,0.884605 3.443746,0.884605 1.105812,0 1.990416,-0.315914 0.884605,-0.315915 1.548103,-0.821467 0.66351,-0.537122 1.105812,-1.105812 0.347484,-0.284345 0.695079,-0.284345 0.315914,0 0.537121,0.252776 0.252777,0.252776 0.252777,0.56869 0,0.379165 -0.315915,0.66351 -0.947854,1.137392 -2.464333,1.990428 -1.516511,0.821467 -3.317368,0.821467 z M 66.167163,22.370588 q 1.958825,0 3.348971,1.042562 1.390135,1.010993 1.895631,3.033023 l -0.442302,0.126389 0.189526,-0.568691 q 0.410734,-0.947855 1.358544,-1.769265 0.979423,-0.853036 2.211579,-1.358544 1.232166,-0.505552 2.495935,-0.505552 1.990417,0 3.190992,0.853036 1.232166,0.853035 1.769266,2.306364 0.56869,1.421737 0.56869,3.222594 v 8.941102 q 0,0.379165 -0.284345,0.66351 -0.252776,0.284345 -0.66351,0.284345 -0.410733,0 -0.695078,-0.284345 -0.252777,-0.284345 -0.252777,-0.66351 v -8.846327 q 0,-1.29535 -0.410733,-2.369548 -0.410733,-1.074243 -1.295349,-1.706071 -0.884605,-0.631941 -2.369559,-0.631941 -1.295349,0 -2.495924,0.631941 -1.168973,0.631828 -1.927234,1.706071 -0.726648,1.074243 -0.726648,2.369548 v 8.846327 q 0,0.379165 -0.284345,0.66351 -0.252776,0.284345 -0.663509,0.284345 -0.410734,0 -0.695079,-0.284345 -0.252776,-0.284345 -0.252776,-0.66351 v -8.941102 q 0,-1.29536 -0.379165,-2.337956 -0.379164,-1.042561 -1.232166,-1.642888 -0.853036,-0.631941 -2.306353,-0.631941 -1.295361,0 -2.464333,0.631941 -1.137392,0.600259 -1.864051,1.642888 -0.695079,1.042562 -0.695079,2.337956 v 8.941102 q 0,0.379165 -0.284345,0.66351 -0.284345,0.284345 -0.66351,0.284345 -0.442302,0 -0.695078,-0.284345 -0.252776,-0.284345 -0.252776,-0.66351 V 23.539493 q 0,-0.379164 0.252776,-0.663509 0.284345,-0.284345 0.695078,-0.284345 0.410734,0 0.66351,0.284345 0.284345,0.284345 0.284345,0.663509 v 2.938238 l -0.853036,1.168984 q 0.09515,-0.947855 0.60026,-1.895643 0.537121,-0.947854 1.390135,-1.706082 0.853035,-0.758217 1.927234,-1.200564 1.105811,-0.473871 2.306364,-0.473871 z m 29.224478,-0.252776 q 2.148396,0 3.791285,1.074243 1.674484,1.074243 2.653894,2.96984 0.97942,1.86404 0.97942,4.328373 0,2.40115 -0.97942,4.328384 -0.97943,1.927234 -2.653894,3.033023 -1.674491,1.105812 -3.759694,1.105812 -1.105812,0 -2.116793,-0.347595 -0.979424,-0.347483 -1.800857,-0.916174 -0.821467,-0.600259 -1.453329,-1.390135 -0.631829,-0.789897 -1.010993,-1.706082 l 0.568691,-0.410734 v 3.570123 q 0,0.410733 -0.284346,0.695078 -0.252776,0.252777 -0.663509,0.252777 -0.410734,0 -0.695079,-0.252777 -0.252776,-0.284345 -0.252776,-0.695078 V 16.241381 q 0,-0.410733 0.252776,-0.66351 0.252776,-0.284345 0.695079,-0.284345 0.410733,0 0.663509,0.284345 0.284346,0.252777 0.284346,0.66351 v 10.58399 l -0.442303,-0.252776 q 0.315915,-0.979424 0.916174,-1.769265 0.631941,-0.821467 1.453329,-1.421727 0.821467,-0.600259 1.800857,-0.916173 0.979424,-0.347596 2.053611,-0.347596 z m -0.157957,1.769265 q -1.706083,0 -3.001432,0.853036 -1.295349,0.853036 -2.053611,2.337956 -0.726648,1.48492 -0.726648,3.412154 0,1.895643 0.726648,3.443746 0.758217,1.516512 2.053611,2.40115 1.295349,0.853036 3.001432,0.853036 1.67448,0 2.938238,-0.884605 1.29536,-0.884605 2.053608,-2.40115 0.75822,-1.548103 0.75822,-3.412154 0,-1.927234 -0.75822,-3.412154 -0.758214,-1.48491 -2.053608,-2.337956 Q 96.908164,23.8871 95.233684,23.8871 Z m 12.574436,14.754406 q -0.4423,0 -0.69507,-0.284345 -0.25278,-0.284345 -0.25278,-0.663509 V 23.539516 q 0,-0.379165 0.25278,-0.66351 0.28434,-0.284345 0.69507,-0.284345 0.41074,0 0.66351,0.284345 0.28435,0.284345 0.28435,0.66351 v 4.739095 l -0.47387,0.09515 q 0.0952,-1.105812 0.53712,-2.179988 0.47387,-1.105812 1.26376,-2.022019 0.78989,-0.916174 1.86405,-1.484921 1.10581,-0.56869 2.46433,-0.56869 0.56869,0 1.10581,0.252776 0.53712,0.221207 0.53712,0.758217 0,0.473871 -0.25277,0.726647 -0.25278,0.252776 -0.60026,0.252776 -0.28435,0 -0.63194,-0.157957 -0.31592,-0.157957 -0.85304,-0.157957 -0.8846,0 -1.76926,0.537122 -0.88461,0.505552 -1.6113,1.390146 -0.72665,0.884604 -1.16897,1.990416 -0.41074,1.074243 -0.41074,2.179988 v 7.803721 q 0,0.379164 -0.28434,0.663509 -0.28435,0.284346 -0.66351,0.284346 z m 24.07468,-16.14454 q 0.41073,0 0.66351,0.284345 0.28434,0.284345 0.28434,0.695078 v 14.217307 q 0,0.379165 -0.28434,0.66351 -0.28435,0.284345 -0.66351,0.284345 -0.41074,0 -0.69508,-0.284345 -0.25278,-0.284345 -0.25278,-0.66351 V 33.93398 l 0.53712,-0.252776 q 0,0.884605 -0.50555,1.800857 -0.47387,0.916174 -1.32695,1.706071 -0.85304,0.789898 -2.02202,1.295361 -1.13738,0.473871 -2.46432,0.473871 -2.1484,0 -3.85448,-1.105812 -1.67448,-1.105812 -2.65389,-3.033023 -0.94786,-1.927234 -0.94786,-4.328384 0,-2.464333 0.97943,-4.328373 0.97942,-1.895642 2.6539,-2.96984 1.67448,-1.074243 3.79127,-1.074243 1.35855,0 2.52753,0.473871 1.20056,0.473872 2.0852,1.29535 0.88461,0.821466 1.35855,1.895642 0.50555,1.042562 0.50555,2.179988 l -0.66351,-0.473872 v -4.012436 q 0,-0.410733 0.25277,-0.695078 0.28435,-0.284346 0.69508,-0.284346 z m -6.57156,14.691212 q 1.67448,0 2.96983,-0.853036 1.29536,-0.884605 2.02202,-2.40115 0.75822,-1.548103 0.75822,-3.443746 0,-1.86404 -0.75822,-3.34896 -0.72665,-1.48492 -2.02202,-2.369547 -1.29535,-0.884605 -2.96983,-0.884605 -1.64289,0 -2.96984,0.853036 -1.29535,0.853035 -2.05361,2.337956 -0.72665,1.48492 -0.72665,3.412154 0,1.895642 0.72665,3.443745 0.75822,1.516512 2.05361,2.40115 1.29535,0.853036 2.96984,0.853036 z m 20.09381,-15.070343 q 2.08521,0 3.31737,0.853036 1.26377,0.821466 1.80086,2.274762 0.56869,1.421726 0.56869,3.1594 v 9.288641 q 0,0.379164 -0.28434,0.66351 -0.28435,0.284345 -0.66351,0.284345 -0.4423,0 -0.69508,-0.284345 -0.25277,-0.284346 -0.25277,-0.66351 v -9.193856 q 0,-1.263757 -0.41074,-2.306364 -0.41073,-1.042562 -1.35854,-1.67448 -0.91629,-0.631941 -2.43274,-0.631941 -1.35855,0 -2.59071,0.631941 -1.20057,0.631828 -1.95883,1.67448 -0.75821,1.042562 -0.75821,2.306364 v 9.193856 q 0,0.379164 -0.28435,0.66351 -0.28435,0.284345 -0.66351,0.284345 -0.4423,0 -0.69508,-0.284345 -0.25277,-0.284346 -0.25277,-0.66351 V 23.539538 q 0,-0.379164 0.25277,-0.663509 0.28435,-0.284346 0.69508,-0.284346 0.41073,0 0.66351,0.284346 0.28435,0.284345 0.28435,0.663509 v 2.653893 l -0.72665,1.137381 q 0.0627,-1.010993 0.63183,-1.927234 0.60026,-0.947855 1.51651,-1.67448 0.91628,-0.758217 2.02202,-1.168972 1.13738,-0.442303 2.27476,-0.442303 z m 17.94537,16.839608 q -2.43274,0 -4.29679,-1.042562 -1.86404,-1.042562 -2.90665,-2.906646 -1.04256,-1.86404 -1.04256,-4.359976 0,-2.685484 1.04256,-4.581126 1.07425,-1.895643 2.74868,-2.906647 1.70608,-1.042562 3.60172,-1.042562 1.39014,0 2.68549,0.505553 1.32695,0.473871 2.33796,1.453329 1.04256,0.947855 1.64289,2.337956 0.63194,1.390135 0.69507,3.222583 -0.0313,0.379164 -0.31591,0.663509 -0.28435,0.252777 -0.66351,0.252777 h -12.66919 l -0.37917,-1.706083 h 12.44803 l -0.41073,0.379164 v -0.63194 q -0.12639,-1.484909 -0.94785,-2.527516 -0.82147,-1.042562 -1.99043,-1.579695 -1.16897,-0.537121 -2.43274,-0.537121 -0.94786,0 -1.95883,0.379164 -0.97942,0.379165 -1.80086,1.200575 -0.78989,0.789898 -1.29535,2.053611 -0.50555,1.232167 -0.50555,2.938249 0,1.86404 0.75822,3.380552 0.75822,1.516511 2.17999,2.40115 1.45333,0.884605 3.44374,0.884605 1.10581,0 1.99043,-0.315915 0.8846,-0.315914 1.5481,-0.821466 0.66351,-0.537122 1.10582,-1.105812 0.34748,-0.284346 0.69507,-0.284346 0.31592,0 0.53713,0.252777 0.25277,0.252776 0.25277,0.56869 0,0.379164 -0.31591,0.66351 -0.94786,1.137392 -2.46434,1.990428 -1.51651,0.821466 -3.31736,0.821466 z"
       id="text1"
       aria-label="vembrane" />
    <circle
       style="fill:#000000;stroke-width:2.96193"
       id="path1"
       cx="59.713589"
       cy="37.342777"
       r="2.3377671" />
    <circle
       style="fill:#000000;stroke-width:2.96193"
       id="circle1"
       cx="70.522278"
       cy="37.342777"
       r="2.3377671" />
    <circle
       style="fill:#000000;stroke-width:2.96193"
       id="circle2"
       cx="81.850487"
       cy="37.342777"
       r="2.3377671" />
    <circle
       style="fill:#000000;stroke-width:2.96193"
       id="circle3"
       cx="88.813354"
       cy="15.465551"
       r="2.3377671" />
    <circle
       style="fill:#000000;stroke-width:2.96193"
       id="circle4"
       cx="139.01093"
       cy="37.342777"
       r="2.3377671" />
    <circle
       style="fill:#000000;stroke-width:2.96193"
       id="circle5"
       cx="150.0793"
       cy="37.342777"
       r="2.3377671" />
    <circle
       style="fill:#000000;stroke-width:2.96193"
       id="circle6"
       cx="107.83318"
       cy="37.342777"
       r="2.3377671" />
  </g>
</svg>
