<?xml version="1.0" encoding="utf-8"?>
<!-- Generator: Adobe Illustrator 24.0.1, SVG Export Plug-In . SVG Version: 6.00 Build 0)  -->
<svg version="1.1" xmlns="http://www.w3.org/2000/svg" xmlns:xlink="http://www.w3.org/1999/xlink" x="0px" y="0px"
	 viewBox="0 0 37.04 20.14" style="enable-background:new 0 0 37.04 20.14;" xml:space="preserve">
<style type="text/css">
	.st0{fill:#4D4D4D;}
	.st1{font-family:'MyriadPro-Regular';}
	.st2{font-size:6.17px;}
	.st3{opacity:0.5;}
	.st4{fill:#1A1A1A;}
	.st5{fill:#4D4D4D;stroke:#FFFFFF;stroke-width:0.5;stroke-miterlimit:10;}
</style>
<g id="Ebene_1">
	<text transform="matrix(1.3824 0 0 1 0.9414 12.3016)" class="st0 st1 st2">EMBRANE</text>
	<g class="st3">
		<g>
			<path class="st4" d="M16.93,19.53L10.49,1.22C10.37,0.87,10.63,0.5,11,0.5h1.77c0.23,0,0.43,0.15,0.51,0.36l3.13,9.19
				c0.9,2.62,1.67,4.98,2.23,7.25h0.06c0.59-2.24,1.46-4.69,2.39-7.22l2.5-6.85c0.07-0.2,0.18-0.38,0.32-0.53l2.01-2.19l0.52,1.92
				c0.09,0.33,0.07,0.68-0.05,0.99l-6.22,16.13c-0.08,0.21-0.28,0.34-0.5,0.34h-2.23C17.21,19.89,17.01,19.75,16.93,19.53z"/>
		</g>
	</g>
	<g>
		<rect x="0.25" y="6.35" class="st5" width="36.54" height="1.17"/>
	</g>
	<g>
		<rect x="0.25" y="12.75" class="st5" width="36.54" height="1.17"/>
	</g>
</g>
<g id="Ebene_2">
</g>
</svg>
